PathFileType	4	(X/Y/Z)	./resultDataOpenSim/trcMotMarkerGrf/sub10/qtm-12-05.trc
DataRate	CameraRate	NumFrames	NumMarkers	Units	OrigDataRate	OrigDataStartFrame	OrigNumFrames
250.000000	250.000000	7	24	m	250.000000	381	507
Frame#	Time	L.Toe.Tip			R.Toe.Tip			L.Ankle.Lat			R.Ankle.Lat			L.Ankle.Med			R.Ankle.Med			L.Heel			R.Heel			L.Knee.Lat			R.Knee.Lat			L.Knee.Med			R.Knee.Med			L.Thigh.Upper			R.Thigh.Upper			L.ASIS			R.ASIS			V.Sacral			L.Acromium			R.Acromium			C7			L.Elbow			R.Elbow			L.Wrist.Lat			R.Wrist.Lat
		X1	Y1	Z1	X2	Y2	Z2	X3	Y3	Z3	X4	Y4	Z4	X5	Y5	Z5	X6	Y6	Z6	X7	Y7	Z7	X8	Y8	Z8	X9	Y9	Z9	X10	Y10	Z10	X11	Y11	Z11	X12	Y12	Z12	X13	Y13	Z13	X14	Y14	Z14	X15	Y15	Z15	X16	Y16	Z16	X17	Y17	Z17	X18	Y18	Z18	X19	Y19	Z19	X20	Y20	Z20	X21	Y21	Z21	X22	Y22	Z22	X23	Y23	Z23	X24	Y24	Z24

381	1.52	0.63799106	0.074867377	-0.20702318	0.77485788	0.03845142	0.0039463321	0.54946802	0.17808565	-0.22099072	0.63310249	0.056752607	0.044501575	0.57972434	0.1797476	-0.1397126	0.65062114	0.081982668	-0.039732353	0.48099941	0.18447084	-0.17230349	0.57927149	0.032821858	0.0014811002	0.79710805	0.47118125	-0.21786072	0.70174885	0.45632994	0.077469946	0.81012338	0.43522844	-0.10079876	0.70980502	0.45771231	-0.050039089	0.7240025	0.8473159	-0.25196558	0.69849785	0.86849816	0.12809369	0.77355434	0.96250631	-0.18234491	0.77266004	0.96610664	0.061161302	0.57180242	0.97051727	-0.07114174	0.69957273	1.4414419	-0.20779475	0.65442541	1.4267279	0.11284605	0.59641633	1.4552368	-0.060636842	0.6023679	1.1114237	-0.27165898	0.59534991	1.0745657	0.14790869	0.71951236	0.90669453	-0.33512313	0.75389015	0.90612126	0.23389348
382	1.524	0.65462059	0.073857412	-0.20688494	0.77487356	0.038420099	0.0039679979	0.56334898	0.17458969	-0.22026817	0.63321795	0.056752329	0.044264567	0.59337836	0.17688299	-0.1389268	0.65081895	0.08204372	-0.039854683	0.49492065	0.17925079	-0.17138976	0.57952721	0.032928116	0.0012171741	0.80638774	0.47213253	-0.21760622	0.70254046	0.4563363	0.077730011	0.81961611	0.43646816	-0.10039909	0.71056096	0.45772415	-0.049634857	0.73100528	0.84783685	-0.25207293	0.70191972	0.86853082	0.12790267	0.77924022	0.96276579	-0.18151838	0.77659022	0.96602709	0.061870959	0.57651708	0.9704336	-0.07241413	0.70465506	1.4412797	-0.20772572	0.65943158	1.4268742	0.11298946	0.6013833	1.4553376	-0.060599889	0.60620555	1.1115063	-0.27079748	0.60202319	1.0739437	0.14978172	0.72158629	0.9061117	-0.33480283	0.76504808	0.9075948	0.23237096
383	1.528	0.67132136	0.072855102	-0.20672811	0.77488629	0.038401287	0.003989823	0.57734285	0.17098473	-0.21954893	0.63330703	0.056769132	0.044045879	0.60722022	0.17394071	-0.13813861	0.65100235	0.082128379	-0.039976539	0.50906191	0.17384398	-0.17025438	0.57985638	0.033116275	0.00095629329	0.81555905	0.47311663	-0.21735011	0.70334442	0.45635927	0.078011341	0.82899554	0.43766201	-0.1000317	0.71142962	0.45770599	-0.049391014	0.73815417	0.84830595	-0.25222942	0.70521908	0.86852851	0.12776521	0.78488763	0.96296613	-0.18071513	0.7804999	0.96591647	0.062563452	0.58156702	0.97035364	-0.073769544	0.70972595	1.4410601	-0.20767417	0.6644256	1.4269531	0.11313923	0.60634351	1.4553831	-0.060569029	0.6099305	1.1113971	-0.26999	0.60883527	1.0734187	0.15147239	0.72371107	0.9055128	-0.33450093	0.77615254	0.90906816	0.23082648
384	1.532	0.68809884	0.071862246	-0.20653491	0.77490848	0.038393236	0.0040082809	0.59146391	0.16729536	-0.21881501	0.63334198	0.056823556	0.043877979	0.6212474	0.17095758	-0.13734373	0.65112721	0.082227651	-0.040075995	0.52344445	0.16829387	-0.16900218	0.58014743	0.033367243	0.00072716741	0.82461498	0.474113	-0.21709694	0.70416936	0.4563809	0.078290292	0.83824833	0.43881213	-0.09969373	0.71244829	0.45764784	-0.049412753	0.74515042	0.84870748	-0.25234338	0.70841001	0.86849116	0.12768718	0.79047844	0.96311283	-0.17995993	0.78438779	0.96577642	0.063237983	0.58716645	0.97030327	-0.075356807	0.71479177	1.4407799	-0.20764001	0.66940529	1.4269645	0.11329334	0.61130062	1.4553776	-0.060535372	0.61337017	1.1111039	-0.26907805	0.61591363	1.0729464	0.15291803	0.7258643	0.90489068	-0.33420929	0.7871828	0.91053327	0.22924902
385	1.536	0.7049609	0.070864349	-0.20629457	0.77495711	0.038386282	0.0040155967	0.6057358	0.16356181	-0.21803918	0.63333559	0.056906911	0.04374963	0.63540971	0.1679644	-0.13651487	0.65117938	0.082332475	-0.040146376	0.53800792	0.16270412	-0.16784453	0.58031589	0.033611954	0.00052530828	0.83351706	0.47509369	-0.21683672	0.7050317	0.45638305	0.078532527	0.84737328	0.43991761	-0.099379821	0.71361403	0.45754222	-0.049664944	0.75186964	0.84903148	-0.25237263	0.7115886	0.8684423	0.12765147	0.79602021	0.96320728	-0.17925743	0.78824944	0.96560788	0.063889203	0.59308922	0.97034088	-0.07717492	0.71985915	1.4404461	-0.207612	0.67437421	1.4269125	0.11344829	0.61625935	1.4553244	-0.06049257	0.61636653	1.1107637	-0.26802438	0.6233408	1.0724607	0.15414813	0.72805935	0.90423863	-0.33393156	0.79812406	0.9119844	0.22762759
386	1.54	0.72192248	0.069841666	-0.20600743	0.77503519	0.038366663	0.0040079721	0.62017435	0.15980033	-0.21722103	0.63330924	0.056999608	0.043637061	0.64971572	0.16495472	-0.13565668	0.65118696	0.082434954	-0.040200194	0.55266214	0.15715434	-0.16686403	0.58036615	0.033805793	0.00032509789	0.84223717	0.47602721	-0.21655959	0.70595186	0.45635165	0.078726917	0.8563956	0.44097455	-0.099085428	0.71496033	0.45734542	-0.049887153	0.75847404	0.84928608	-0.25235896	0.71485443	0.86840199	0.1276109	0.80155367	0.9632462	-0.17858618	0.79209103	0.96541216	0.064517774	0.59873723	0.97048822	-0.078997296	0.72492805	1.4400681	-0.20758389	0.67933769	1.4267997	0.11360459	0.62121867	1.4552175	-0.060444453	0.61888633	1.1105076	-0.26684595	0.6310658	1.0719329	0.15528095	0.73036095	0.9035557	-0.33369177	0.80898629	0.91342949	0.22596516
387	1.544	0.73898301	0.068793604	-0.20567408	0.77510953	0.03832504	0.0039960778	0.63477448	0.15598991	-0.21638789	0.63326436	0.057090565	0.043529946	0.6642078	0.16189732	-0.1348093	0.65120472	0.082525426	-0.040263374	0.56735832	0.15164888	-0.1659399	0.58035559	0.033948656	0.00011114298	0.85077451	0.4768871	-0.21626719	0.70694559	0.45627988	0.078893566	0.8653727	0.44197961	-0.098810758	0.71652071	0.45700461	-0.049826049	0.76511277	0.84948166	-0.25234183	0.71829078	0.86837596	0.12747918	0.80712072	0.9632269	-0.17792726	0.79592958	0.96519151	0.065132541	0.60377663	0.97065973	-0.080436982	0.72999372	1.439647	-0.20755808	0.68430163	1.4266278	0.11376443	0.62617288	1.4550502	-0.060401069	0.62107382	1.1103602	-0.26558667	0.63895952	1.0713619	0.15643117	0.73281346	0.9028486	-0.3335086	0.81980068	0.91488815	0.22428352
